# xmcd
#
# Track frame offsets:
#	150
#	12979
#	27336
#	40610
#	55382
#	72113
#	86977
#	102858
#	123009
#	138631
#	153008
#	173612
#	189984
#	207248
#	223044
#	241801
#	254057
#
# Disc length: 3595 seconds
#
# Revision: 1
# Processed by: cddbd v1.5.2PL0 Copyright (c) Steve Scherf et al.
# Submitted via: audiograbber 1.83.01
#
DISCID=e60e0911
DTITLE=Mungo Jerry (Move On - The Latest And Greatest) CD 2 - Move On - The Lat
DTITLE=est And Greatest CD 2
DYEAR=1900
DGENRE=
TTITLE0=Alright, alright, alright
TTITLE1=Wild love
TTITLE2=Long legged woman dressed in black
TTITLE3=It's a secret
TTITLE4=Lana
TTITLE5=The drum
TTITLE6=Hello Nadine
TTITLE7=Sugar mama
TTITLE8=Forgotten land
TTITLE9=Lady rose
TTITLE10=Red leather and chrome
TTITLE11=In the summertime
TTITLE12=Let's get started
TTITLE13=Open up
TTITLE14=Baby jump
TTITLE15=Gonna bop' till I drop
TTITLE16=Can't get over loving you
EXTD=
EXTT0=
EXTT1=
EXTT2=
EXTT3=
EXTT4=
EXTT5=
EXTT6=
EXTT7=
EXTT8=
EXTT9=
EXTT10=
EXTT11=
EXTT12=
EXTT13=
EXTT14=
EXTT15=
EXTT16=
PLAYORDER=
